# xmcd CD Database Entry
#
# Track frame offsets:
# 150
# 15370
# 24272
# 41272
# 74997
# 95242
# 116165
# 143535
# 155832
# 172312
# 184087
# 199295
# 214680
# 235977
# 270080
# 285770
#
# Disc length: 4183 seconds
#
# Revision: 1
# Processed by: cddbd v1.4PL0 Copyright (c) Steve Scherf et al.
# Submitted via: tcd 2.0b
#
DISCID=e4105510
DTITLE=Anima - Especiarias
DYEAR=1900
DGENRE=
TTITLE0=Tupinambá
TTITLE1=Baiãozim Calungo
TTITLE2=Quantas Sabedes Amar
TTITLE3=Folias de Reis
TTITLE4=Craião
TTITLE5=Moreninha
TTITLE6=Ó Mana - La Rotta
TTITLE7=Canto das Fiandeiras
TTITLE8=Tu Gitana Que Adevinas
TTITLE9=Que He O Que Vejo
TTITLE10=Gotejando
TTITLE11=Lundu - Solta o Sapo
TTITLE12=Manuelzão
TTITLE13=Blanca Niña
TTITLE14=Saltarello - Aboio
TTITLE15=Ay Luna - A Lua Girou
EXTD=
EXTT0=
EXTT1=
EXTT2=
EXTT3=
EXTT4=
EXTT5=
EXTT6=
EXTT7=
EXTT8=
EXTT9=
EXTT10=
EXTT11=
EXTT12=
EXTT13=
EXTT14=
EXTT15=
PLAYORDER=
